<?xml version="1.0" encoding="UTF-8"?>
<svg id="Layer_2" data-name="Layer 2" xmlns="http://www.w3.org/2000/svg" viewBox="0 0 740.94 200.4">
  <defs>
    <style>
      .cls-1 {
        fill: #fdb913;
      }

      .cls-2 {
        fill: #fcb917;
      }

      .cls-3 {
        fill: #0e782c;
      }

      .cls-4 {
        fill: #14793d;
      }
    </style>
  </defs>
  <g id="Main_Logo_Default" data-name="Main Logo Default">
    <g id="Layer_4" data-name="Layer 4">
      <rect class="cls-2" y="12.69" width="78.42" height="78.42" rx="9.41" ry="9.41"/>
      <rect class="cls-2" y="109.25" width="78.42" height="78.42" rx="9.41" ry="9.41"/>
      <path class="cls-3" d="M165.12,142.19c3.68,3.68,3.68,9.64,0,13.31l-42.14,42.14c-3.68,3.68-9.64,3.68-13.31,0l-27.17-27.17c-1.5-1.5-4.08-.43-4.08,1.7v-46.64c0,2.13,2.58,3.2,4.08,1.7l25.34-25.34c.93-.93,.93-2.44,0-3.37l-25.34-25.34c-1.5-1.5-4.08-.43-4.08,1.7V28.23c0,2.13,2.58,3.2,4.08,1.7L109.67,2.76c3.68-3.68,9.64-3.68,13.31,0l42.14,42.14c3.68,3.68,3.68,9.64,0,13.31l-40.31,40.31c-.93,.93-.93,2.44,0,3.37l40.31,40.31Z"/>
    </g>
    <g>
      <path class="cls-1" d="M182.61,171.18V31.02c0-.84,.68-1.53,1.53-1.53h28.6c.84,0,1.53,.68,1.53,1.53v48.84c0,1.38,1.69,2.05,2.64,1.05l47.98-50.94c.29-.31,.69-.48,1.11-.48h34.59c1.34,0,2.03,1.61,1.1,2.58l-50.92,53.22c-.49,.51-.56,1.29-.18,1.88l53.94,83.17c.66,1.01-.07,2.36-1.28,2.36h-35.18c-.52,0-1.01-.27-1.29-.71l-38.39-60.45c-.53-.84-1.71-.95-2.39-.24l-11.31,11.85c-.27,.28-.42,.66-.42,1.05v46.96c0,.84-.68,1.53-1.53,1.53h-28.6c-.84,0-1.53-.68-1.53-1.53Z"/>
      <path class="cls-1" d="M349.39,175.16c-8.21,0-15.16-1.77-20.83-5.32-5.67-3.54-9.97-8.76-12.91-15.65-2.93-6.89-4.4-15.31-4.4-25.27v-57.8c0-.84,.68-1.53,1.53-1.53h26.28c.84,0,1.53,.68,1.53,1.53v54.73c0,7.64,1.5,13.47,4.5,17.49,3,4.02,7.82,6.04,14.47,6.04,4.04,0,7.66-.95,10.85-2.86,3.19-1.91,5.67-4.71,7.43-8.39,1.76-3.68,2.64-8.18,2.64-13.5v-53.51c0-.84,.68-1.53,1.53-1.53h26.28c.84,0,1.53,.68,1.53,1.53v100.06c0,.84-.68,1.53-1.53,1.53h-22.77c-.76,0-1.4-.56-1.51-1.31l-1.55-10.78c-.2-1.39-1.99-1.78-2.78-.62-2.67,3.95-6.12,7.26-10.35,9.95-5.48,3.48-12.12,5.22-19.95,5.22Z"/>
      <path class="cls-1" d="M493.28,175.16c-4.83,0-9.16-.61-13-1.84-3.85-1.23-7.24-2.97-10.17-5.22-2.11-1.62-4-3.4-5.67-5.33-.81-.94-2.32-.62-2.65,.57l-2.23,8.23c-.18,.66-.78,1.13-1.47,1.13h-23.32c-.84,0-1.53-.68-1.53-1.53V26.93c0-.84,.68-1.53,1.53-1.53h26.28c.84,0,1.53,.68,1.53,1.53v51.67c0,1.42,1.76,2.06,2.68,.98,2.65-3.09,5.8-5.73,9.44-7.94,4.95-3,11.08-4.5,18.38-4.5,9,0,17.04,2.35,24.15,7.06,7.1,4.71,12.74,11.12,16.92,19.23,4.17,8.12,6.26,17.42,6.26,27.93s-2.09,19.44-6.26,27.62c-4.17,8.18-9.78,14.6-16.82,19.23-7.04,4.64-15.06,6.96-24.05,6.96Zm-7.24-26.8c4.69,0,8.9-1.16,12.61-3.48,3.71-2.32,6.62-5.49,8.7-9.51,2.08-4.02,3.13-8.69,3.13-14.01s-1.05-10.06-3.13-14.22c-2.09-4.16-4.99-7.4-8.7-9.72-3.72-2.32-7.92-3.48-12.61-3.48s-9.09,1.2-12.81,3.58c-3.72,2.39-6.62,5.59-8.7,9.62-2.09,4.02-3.13,8.76-3.13,14.22s1.04,9.86,3.13,14.01c2.08,4.16,4.99,7.37,8.7,9.62,3.72,2.25,7.98,3.38,12.81,3.38Z"/>
      <rect class="cls-1" x="560.27" y="69.59" width="29.34" height="103.1" rx="1.53" ry="1.53"/>
      <path class="cls-4" d="M592.94,42.59c0,4.89-1.67,8.93-4.99,12.15-3.33,3.22-7.66,4.82-13,4.82s-9.46-1.6-12.71-4.82c-3.27-3.21-4.9-7.25-4.9-12.15s1.63-9.15,4.9-12.36c3.25-3.21,7.49-4.82,12.71-4.82s9.67,1.61,13,4.82c3.32,3.21,4.99,7.33,4.99,12.36Z"/>
      <path class="cls-1" d="M609.82,170.34l45.21-69.42c.34-.52,.33-1.18-.02-1.69l-45.95-67.35c-.69-1.01,.03-2.39,1.26-2.39h33.38c.5,0,.98,.25,1.26,.66l29.96,43.83c.62,.91,1.98,.88,2.56-.07l26.66-43.69c.28-.45,.77-.73,1.3-.73h32.54c1.21,0,1.94,1.35,1.28,2.36l-44.98,68.8c-.34,.52-.33,1.19,.02,1.69l46.38,67.97c.69,1.01-.03,2.39-1.26,2.39h-33.37c-.51,0-.98-.25-1.26-.67l-30.17-44.62c-.62-.92-1.99-.89-2.57,.06l-27.08,44.5c-.28,.45-.77,.73-1.3,.73h-32.55c-1.21,0-1.94-1.34-1.28-2.36Z"/>
    </g>
  </g>
</svg>